<svg width="36" height="36" viewBox="0 0 36 36" fill="none" xmlns="http://www.w3.org/2000/svg">
<path d="M31.5 14.625V28.125C31.5 28.7217 31.2629 29.294 30.841 29.716C30.419 30.1379 29.8467 30.375 29.25 30.375H6.75C6.15326 30.375 5.58097 30.1379 5.15901 29.716C4.73705 29.294 4.5 28.7217 4.5 28.125V14.625C4.5 14.0283 4.73705 13.456 5.15901 13.034C5.58097 12.6121 6.15326 12.375 6.75 12.375H29.25C29.8467 12.375 30.419 12.6121 30.841 13.034C31.2629 13.456 31.5 14.0283 31.5 14.625ZM7.875 10.125H28.125C28.4234 10.125 28.7095 10.0065 28.9205 9.79549C29.1315 9.58452 29.25 9.29837 29.25 9C29.25 8.70163 29.1315 8.41548 28.9205 8.20451C28.7095 7.99353 28.4234 7.875 28.125 7.875H7.875C7.57663 7.875 7.29048 7.99353 7.07951 8.20451C6.86853 8.41548 6.75 8.70163 6.75 9C6.75 9.29837 6.86853 9.58452 7.07951 9.79549C7.29048 10.0065 7.57663 10.125 7.875 10.125ZM10.125 5.625H25.875C26.1734 5.625 26.4595 5.50647 26.6705 5.29549C26.8815 5.08452 27 4.79837 27 4.5C27 4.20163 26.8815 3.91548 26.6705 3.7045C26.4595 3.49353 26.1734 3.375 25.875 3.375H10.125C9.82663 3.375 9.54048 3.49353 9.32951 3.7045C9.11853 3.91548 9 4.20163 9 4.5C9 4.79837 9.11853 5.08452 9.32951 5.29549C9.54048 5.50647 9.82663 5.625 10.125 5.625Z" fill="black"/>
<path d="M14.4922 18.9688C14.9077 19.7478 15.125 20.6171 15.125 21.5C15.125 22.3829 14.9077 23.2522 14.4922 24.0313" stroke="white" stroke-width="1.5" stroke-linecap="round" stroke-linejoin="round"/>
<path d="M20.3984 15.5938C21.3679 17.4115 21.875 19.4399 21.875 21.5C21.875 23.5601 21.3679 25.5885 20.3984 27.4063" stroke="white" stroke-width="1.5" stroke-linecap="round" stroke-linejoin="round"/>
<path d="M17.4453 17.2812C18.1378 18.5796 18.5 20.0285 18.5 21.5C18.5 22.9715 18.1378 24.4204 17.4453 25.7188" stroke="white" stroke-width="1.5" stroke-linecap="round" stroke-linejoin="round"/>
</svg>
